<svg width="312" height="312" viewBox="0 0 312 312" fill="none" xmlns="http://www.w3.org/2000/svg">
<rect x="-0.000244141" y="6.10352e-05" width="311.481" height="311.481" rx="21" fill="url(#paint0_linear_468_7)"/>
<path fill-rule="evenodd" clip-rule="evenodd" d="M39.9998 234.783V74.722C39.9998 55.5583 55.5585 40.0001 74.7223 40.0001H236.759C255.923 40.0001 271.481 55.5583 271.481 74.722V236.759C271.481 255.922 255.923 271.481 236.759 271.481H74.7223C74.2171 271.481 73.7147 271.47 73.215 271.449C73.8377 270.961 74.4358 270.432 75.0071 269.861C75.3975 269.47 75.7687 269.067 76.1202 268.652C76.124 268.655 76.1268 268.657 76.1279 268.659C76.1869 268.583 76.246 268.507 76.3044 268.431C76.5964 268.076 76.8741 267.713 77.1382 267.341C98.679 238.96 90.4713 231.216 120.34 209.902C127.265 204.96 133.285 210.153 134.447 211.271C134.518 211.342 134.586 211.41 134.649 211.473L157.002 233.826C159.672 236.496 163.768 236.736 166.142 234.362L178.712 221.792C180.042 220.462 179.908 218.167 178.412 216.671L93.1545 131.413C91.6587 129.918 89.3642 129.783 88.0335 131.113L75.4642 143.683C73.0893 146.058 73.3293 150.154 75.9994 152.824L99.0366 175.86C99.5942 176.478 104.149 181.889 99.1071 188.75C77.1737 218.592 71.0878 210.766 41.126 233.657C41.1265 233.66 41.1391 233.68 41.1621 233.716C40.7635 234.054 40.3759 234.409 39.9998 234.783ZM98.2127 120.934L189.814 212.536L254.966 147.383C257.558 144.792 257.296 140.322 254.381 137.407L243.82 126.846C240.906 123.931 236.435 123.669 233.843 126.261L231.913 128.191C235.536 124.488 235.143 118.168 231.014 114.04L210.825 93.8508C206.697 89.7221 200.377 89.329 196.674 92.952C200.297 89.2492 199.904 82.9292 195.775 78.8005L175.586 58.6116C171.457 54.4829 165.137 54.0893 161.435 57.7129C161.413 57.7347 161.391 57.7566 161.369 57.7785L98.2127 120.934ZM60.4417 261.277C59.1865 261.784 57.8153 262.063 56.3791 262.063C50.3801 262.063 45.51 257.192 45.51 251.193C45.51 245.194 50.3801 240.324 56.3791 240.324C62.3782 240.324 67.2488 245.194 67.2488 251.193C67.2488 252.693 66.9443 254.123 66.3937 255.423C66.0619 256.821 65.3725 258.116 64.3173 259.171C63.2305 260.258 61.8883 260.957 60.4417 261.277Z" fill="white"/>
<defs>
<linearGradient id="paint0_linear_468_7" x1="-4.31947e-06" y1="311" x2="311" y2="4.26359e-06" gradientUnits="userSpaceOnUse">
<stop stop-color="#151515"/>
<stop offset="1" stop-color="#212121"/>
</linearGradient>
</defs>
</svg>
